# xmcd CD database file
#
# Track frame offsets:
#	150
#	45452
#	74595
#	98852
#	129672
#	161925
#	189690
#	227625
#
# Disc length: 3591 seconds
#
# Revision: 0
# Processed by: cddbd v1.5.2PL0 Copyright (c) Steve Scherf et al.
# Submitted via: CDex 1.50Beta7
#
DISCID=710e0508
DTITLE=Ronnnie Mathews Trio - Selena's Dance
DYEAR=1988
DGENRE=Jazz
TTITLE0=In a Sentimental Mood
TTITLE1=My Funny Valentine
TTITLE2=Stella By Starlight
TTITLE3=Selena's Dance
TTITLE4=Body And Soul
TTITLE5=There Is No Greater Love
TTITLE6=Blue Bossa
TTITLE7=Fee Fi Fo Fum
EXTD=
EXTT0=
EXTT1=
EXTT2=
EXTT3=
EXTT4=
EXTT5=
EXTT6=
EXTT7=
PLAYORDER=
